<svg width="240" height="500" viewBox="0 0 240 500" fill="none" xmlns="http://www.w3.org/2000/svg">
<path d="M250 0C111.93 0 0 111.93 0 250C0 388.07 111.93 500 250 500C388.07 500 500 388.07 500 250C499.846 111.996 388.004 0.154167 250 0ZM258.923 72.074L345.833 37.3333C355.697 41.797 365.239 46.9403 374.39 52.726L374.618 52.8688C383.61 58.5662 392.205 64.869 400.342 71.7333L401.042 72.3427C404.688 75.4502 408.239 78.6677 411.691 81.9906C412.126 82.4177 412.581 82.824 413.017 83.2604C416.632 86.791 420.137 90.4331 423.527 94.1813C423.808 94.499 424.076 94.8323 424.357 95.15C427.331 98.4823 430.192 101.932 432.967 105.441C433.634 106.274 434.302 107.108 434.949 107.943C437.959 111.841 440.873 115.807 443.624 119.901L426.298 193.551L341.056 221.968L258.944 156.267L258.923 72.074ZM65.0427 107.991C65.6896 107.157 66.349 106.324 67.0167 105.493C69.7561 102.018 72.5933 98.6221 75.525 95.3083C75.8427 94.9583 76.1354 94.6 76.449 94.25C79.8157 90.4956 83.3069 86.8547 86.9167 83.3333C87.3323 82.9271 87.7469 82.5 88.1823 82.125C91.6055 78.8234 95.1269 75.6251 98.7417 72.5344L99.575 71.8344C107.639 65.0205 116.152 58.7563 125.056 53.0844L125.381 52.876C134.478 47.1036 143.963 41.966 153.768 37.5L241.077 72.074V156.242L158.96 221.932L73.7187 193.568L56.3927 119.918C59.155 115.856 62.0397 111.878 65.0427 107.991ZM55.001 377.876C52.5492 374.139 50.2059 370.332 47.974 366.459L47.4323 365.523C45.2108 361.667 43.1074 357.744 41.125 353.759L41.0563 353.634C36.8805 345.252 33.2159 336.624 30.0823 327.799V327.718C28.601 323.551 27.25 319.283 26.001 314.991L25.549 313.407C24.4011 309.359 23.3646 305.281 22.4406 301.176C22.3594 300.773 22.2573 300.391 22.176 299.992C20.1297 290.682 18.6593 281.256 17.7729 271.766L68.6479 210.718L153.3 238.932L177.869 337.199L137.5 390.909L55.001 377.876ZM305.493 476.607C301.326 477.641 297.05 478.532 292.774 479.333C292.175 479.451 291.566 479.549 290.967 479.659C287.325 480.31 283.643 480.868 279.952 481.323C278.968 481.449 277.991 481.583 277.01 481.702C273.583 482.1 270.125 482.401 266.658 482.65C265.568 482.723 264.49 482.833 263.399 482.902C258.968 483.175 254.5 483.333 250 483.333C245.878 483.333 241.781 483.224 237.708 483.007C237.216 483.007 236.743 482.926 236.25 482.89C232.625 482.682 229.016 482.41 225.415 482.059L225 481.982C217.109 481.126 209.266 479.876 201.501 478.234L152.209 401.057L191.944 348.075H308.056L348.442 401.408L305.493 476.607ZM477.885 300C477.8 300.399 477.702 300.785 477.617 301.184C476.688 305.288 475.651 309.366 474.507 313.416L474.059 314.999C472.819 319.279 471.457 323.523 469.975 327.726V327.807C466.843 336.633 463.178 345.26 459.001 353.642L458.931 353.768C456.943 357.749 454.84 361.672 452.625 365.531L452.083 366.468C449.869 370.343 447.529 374.145 445.069 377.869L362.85 390.832L322.201 337.166L346.757 238.924L431.408 210.709L482.283 271.757C481.401 281.253 479.932 290.685 477.885 300Z" fill="#0B0A04"/>
</svg>
